<svg t="1735438609166" class="icon" viewBox="0 0 1024 1024" version="1.1" xmlns="http://www.w3.org/2000/svg" p-id="41034" width="200" height="200"><path d="M982.815902 41.11995a138.432003 138.432003 0 0 1 41.1832 99.173251v743.350348a140.613045 140.613045 0 0 1-140.356452 140.356451H140.356451A140.484748 140.484748 0 0 1 0 883.643549V140.35735A140.4206 140.4206 0 0 1 140.356451 0.000898h743.286199a138.945189 138.945189 0 0 1 99.173252 41.119052zM350.82698 575.539327a64.533177 64.533177 0 0 0-15.908775-44.903801C324.333738 518.89639 308.489111 513.187192 287.19188 513.187192A68.574519 68.574519 0 0 0 237.348661 530.571378a46.122618 46.122618 0 0 0-12.829657 44.903801v161.204644a60.042796 60.042796 0 0 0 18.089817 44.390615 60.876724 60.876724 0 0 0 44.9038 18.153965 59.208869 59.208869 0 0 0 44.454763-18.153965 65.174659 65.174659 0 0 0 18.603003-44.390615V575.539327z m217.013655-288.218252A61.7748 61.7748 0 0 0 504.782869 224.519902a59.208869 59.208869 0 0 0-44.454763 18.089817 65.751994 65.751994 0 0 0-18.603003 44.454762v449.422898a65.944439 65.944439 0 0 0 18.603003 44.390614 59.401314 59.401314 0 0 0 44.454763 18.153965 61.069169 61.069169 0 0 0 44.9038-18.153965 60.042796 60.042796 0 0 0 18.089817-44.390614z m224.519003 218.104175a59.401314 59.401314 0 0 0-21.874565-44.903801 72.423416 72.423416 0 0 0-47.982919-17.897372 57.156124 57.156124 0 0 0-43.877428 17.57663 50.420553 50.420553 0 0 0-12.059878 44.903801v231.318722a60.106945 60.106945 0 0 0 18.153965 44.390615 60.876724 60.876724 0 0 0 44.903801 18.153965 59.208869 59.208869 0 0 0 44.454763-18.153965 65.495401 65.495401 0 0 0 18.603003-44.390615V505.42525z" fill="#ea4c89" p-id="41035"></path></svg>