<svg t="1735437620198" class="icon" viewBox="0 0 1024 1024" version="1.1" xmlns="http://www.w3.org/2000/svg"
	p-id="15483" width="200" height="200">
	<path
		d="M641.428105 587.21496h230.862957c56.916352 0 102.961042 46.044689 102.961042 102.961041v230.862957c0 27.498912-10.871663 53.079295-30.056951 72.904092-19.185287 19.185287-45.40518 30.05695-72.904091 30.05695h-230.862957c-27.498912 0-53.079295-10.871663-72.904092-30.05695-19.185287-19.185287-30.05695-45.40518-30.05695-72.904092v-230.862957c0-27.498912 10.871663-53.079295 30.05695-72.904091 19.824797-19.185287 46.044689-30.05695 72.904092-30.05695zM333.823999 484.253918H102.961042c-27.498912 0-53.079295-10.871663-72.904092-30.05695C10.871663 435.01168 0 408.791788 0 381.932386V150.429919c0-27.498912 10.871663-53.079295 30.05695-72.904092 19.185287-19.185287 45.40518-30.05695 72.904092-30.05695h230.862957c56.916352 0 102.961042 46.044689 102.961041 102.961042v230.862957c0 27.498912-10.871663 53.079295-30.05695 72.904092-19.824797 19.185287-46.044689 30.05695-72.904091 30.05695z m0 539.106572H102.961042c-27.498912 0-53.079295-10.871663-72.904092-30.05695S0 947.89836 0 920.399449v-230.862957c0-27.498912 10.871663-53.079295 30.05695-72.904092 19.185287-19.185287 45.40518-30.05695 72.904092-30.05695h230.862957c56.916352 0 102.961042 46.044689 102.961041 102.961042v230.862957c0 27.498912-10.871663 53.079295-30.05695 72.904091-19.824797 19.185287-46.044689 30.05695-72.904091 30.05695zM993.158372 338.445734l-163.074942 163.074942a102.321532 102.321532 0 0 1-145.168674 0L521.200305 338.445734a102.321532 102.321532 0 0 1 0-145.168673L684.275246 30.202119a102.321532 102.321532 0 0 1 145.168674 0l163.074942 163.074942c40.928613 40.289103 40.928613 105.51908 0.63951 145.168673z"
		p-id="15484" fill="#ea4c89"></path>
</svg>