<svg t="1735807608658" class="icon" viewBox="0 0 1024 1024" version="1.1" xmlns="http://www.w3.org/2000/svg" p-id="1918"
	width="200" height="200">
	<path
		d="M247.4496 787.2c0 46.9504 17.1008 89.6 51.2 121.6 32 32 76.8 51.2 121.6 51.2 32 0 64-8.5504 91.7504-25.6 27.7504 17.0496 59.7504 25.6 91.7504 25.6 46.8992 0 89.6-17.0496 121.6-51.2 32-32 51.2-76.8 51.2-121.6v-10.6496h10.6496c46.9504 0 89.6-17.1008 121.6-51.2 34.1504-32 51.2-74.7008 51.2-121.6 0-32-8.5504-64-25.6-91.7504 17.0496-27.7504 25.6-59.7504 25.6-91.7504 0-46.8992-17.0496-89.6-51.2-121.6-32-32-76.8-51.2-121.6-51.2h-10.6496v-10.6496c0-46.9504-17.1008-89.6-51.2-121.6-32-34.1504-74.7008-51.2-121.6-51.2-32 0-64 8.5504-91.7504 25.6a175.2064 175.2064 0 0 0-91.7504-25.6c-46.8992 0-89.6 17.0496-121.6 51.2-32 32-51.2 76.8-51.2 121.6v10.6496h-10.6496c-46.9504 0-89.6 17.1008-121.6 51.2-32 32-51.2 76.8-51.2 121.6 0 32 8.5504 64 25.6 91.7504a175.2576 175.2576 0 0 0-25.6 91.7504c0 46.8992 17.0496 89.6 51.2 121.6 32 32 76.8 51.2 121.6 51.2h10.6496v10.6496zM358.4 849.0496c-17.0496-17.0496-25.6-38.4-25.6-61.8496 0-23.4496 8.5504-44.8 25.6-61.8496l83.2-83.2a41.2672 41.2672 0 0 0 0-59.7504 41.2672 41.2672 0 0 0-59.7504 0L298.6496 665.6c-17.0496 17.0496-38.4 25.6-61.8496 25.6-23.4496 0-44.8-8.5504-61.8496-25.6-17.1008-17.0496-25.6-38.4-25.6-61.8496 0-23.5008 8.4992-44.8 25.6-61.9008a42.1376 42.1376 0 0 0 12.8-29.8496 42.1376 42.1376 0 0 0-12.8-29.8496c-17.1008-17.1008-25.6-38.4-25.6-61.9008 0-23.4496 8.4992-44.8 25.6-61.8496 17.0496-17.0496 38.4-25.6 61.8496-25.6 23.4496 0 44.8 8.5504 61.8496 25.6l83.2 83.2a41.2672 41.2672 0 0 0 59.7504 0 41.2672 41.2672 0 0 0 0-59.7504L358.4 298.6496c-17.0496-17.0496-25.6-38.4-25.6-61.8496 0-23.4496 8.5504-44.8 25.6-61.8496 17.0496-17.1008 38.4-25.6 61.8496-25.6 23.5008 0 44.8 8.4992 61.9008 25.6 17.0496 17.0496 44.8 17.0496 59.6992 0 17.1008-17.1008 38.4-25.6 61.9008-25.6 23.4496 0 44.8 8.4992 61.8496 25.6 17.0496 17.0496 25.6 38.4 25.6 61.8496 0 23.4496-8.5504 44.8-25.6 61.8496l-83.2 83.2a41.2672 41.2672 0 0 0 0 59.7504 41.2672 41.2672 0 0 0 59.7504 0L725.3504 358.4c17.0496-17.0496 38.4-25.6 61.8496-25.6 23.4496 0 44.8 8.5504 61.8496 25.6 17.1008 17.0496 25.6 38.4 25.6 61.8496 0 23.5008-8.4992 44.8-25.6 61.9008a42.1376 42.1376 0 0 0-12.8 29.8496c0 10.6496 4.3008 21.3504 12.8 29.8496 17.1008 17.1008 25.6 38.4 25.6 61.9008 0 23.4496-8.4992 44.8-25.6 61.8496-17.0496 17.0496-38.4 25.6-61.8496 25.6-23.4496 0-44.8-8.5504-61.8496-25.6l-83.2-83.2a41.2672 41.2672 0 0 0-59.7504 0 41.2672 41.2672 0 0 0 0 59.7504L665.6 725.3504c17.0496 17.0496 25.6 38.4 25.6 61.8496 0 23.4496-8.5504 44.8-25.6 61.8496-17.0496 17.1008-38.4 25.6-61.8496 25.6-23.5008 0-44.8-8.4992-61.9008-25.6-17.0496-17.0496-44.8-17.0496-59.6992 0-17.1008 17.1008-38.4 25.6-61.9008 25.6-23.4496 0-44.8-8.4992-61.8496-25.6z"
		fill="#1afa29" opacity=".5" p-id="1919"></path>
</svg>