<svg t="1734229220097" class="icon" viewBox="0 0 1024 1024" version="1.1" xmlns="http://www.w3.org/2000/svg" p-id="5862" width="200" height="200"><path d="M846.307 269.721H717.111v-44.038c0-62.343-50.949-113.274-113.19-113.274H405.749c-62.289 0-113.298 50.931-113.298 113.274v44.055H182.507c-62.325-0.018-113.299 43.079-113.299 105.374V793.39c0 62.26 50.974 113.228 113.299 113.228h663.799c62.266 0 113.203-50.968 113.203-113.228V375.112c0.001-62.294-50.936-105.391-113.202-105.391z m-493.162-44.038c0-27.806 24.773-52.633 52.604-52.633h198.172c27.7 0 52.544 24.803 52.544 52.633v44.055h-303.32v-44.055z m333.614 438.273H565.417V785.31H444.169V663.956H322.792V512.298h121.377V391.075h121.248v121.251h121.341v151.63z" fill="#E98699" p-id="5863"></path></svg>