<svg t="1734224870443" class="icon" viewBox="0 0 1024 1024" version="1.1" xmlns="http://www.w3.org/2000/svg"
    p-id="67626" width="200" height="200">
    <path
        d="M880 384H736V256H160v608c0 53.02 42.98 96 96 96h384c53.02 0 96-42.98 96-96v-64h48c88.37 0 160-71.63 160-160V448c0-35.35-28.65-64-64-64zM672 864c0 17.64-14.36 32-32 32H256c-17.64 0-32-14.36-32-32V320h448v544z m224-224c0 61.76-50.24 112-112 112h-48V432h144c8.82 0 16 7.18 16 16v192z"
        fill="#EDEDED" p-id="67627"></path>
    <path d="M640 896H256c-26.51 0-48-21.49-48-48V288h480v560c0 26.51-21.49 48-48 48z" fill="#F6CE46" p-id="67628">
    </path>
    <path d="M576 576m-32 0a32 32 0 1 0 64 0 32 32 0 1 0-64 0Z" fill="#E7B03C" p-id="67629"></path>
    <path d="M440 664m-24 0a24 24 0 1 0 48 0 24 24 0 1 0-48 0Z" fill="#E7B03C" p-id="67630"></path>
    <path d="M528 784m-16 0a16 16 0 1 0 32 0 16 16 0 1 0-32 0Z" fill="#E7B03C" p-id="67631"></path>
    <path
        d="M640 128c-2.1 0-4.06 0.48-6.13 0.57C610.71 108.54 580.58 96 547.2 96c-10.37 0-20.33 1.46-30 3.68C490.38 77.72 456.56 64 419.2 64c-52.91 0-99.51 26.54-127.6 66.92-1.22-0.04-2.37-0.36-3.6-0.36-70.69 0-128 56.74-128 126.72 0 50.61 30.17 93.94 73.49 114.25 0 0 54.51 26.02 54.5 85.8v0.04c0 1.6-0.39 3.08-0.47 4.65l0.47 0.02v176.67c0 17.6 14.4 32 32 32s32-14.4 32-32V448c0-17.67 14.33-32 32-32s32 14.33 32 32v56c0 22 18 40 40 40s40-18 40-40V399.49c0-24.5 19.23-45.87 44.37-44.37 0 0 44.69 1.31 99.63 10.96 69.63 12.22 128-53.3 128-119.04S710.69 128 640 128z"
        fill="#F5F1E9" p-id="67632"></path>
</svg>