<svg t="1734232711469" class="icon" viewBox="0 0 1024 1024" version="1.1" xmlns="http://www.w3.org/2000/svg" p-id="6886" width="200" height="200"><path d="M136.50787 1024h580.253935l238.946065-238.946065V68.253935A68.253935 68.253935 0 0 0 887.453935 0H136.50787A68.253935 68.253935 0 0 0 68.253935 68.253935v887.49213a68.253935 68.253935 0 0 0 68.253935 68.253935z" fill="#00A1FF" p-id="6887"></path><path d="M649.15718 431.791123l-367.165684 367.165684 5.11809 91.667288 91.43812 5.079896 367.089295-367.165684-96.518016-96.518016z m24.100858-24.100858l96.55621 96.55621 48.239911-48.3163a33.802313 33.802313 0 0 0 0-48.23991l-48.201716-48.239911a33.802313 33.802313 0 0 0-48.3163 0l-48.3163 48.201716z" fill="#E9F4FF" p-id="6888"></path><path d="M716.8 1024l238.946065-238.946065h-153.580903a85.326968 85.326968 0 0 0-85.326967 85.326968z" fill="#96D8FF" p-id="6889"></path><path d="M238.90787 127.990451h384.009549a37.698172 37.698172 0 0 1 42.663484 42.663484 37.698172 37.698172 0 0 1-42.663484 42.663484H238.90787a37.698172 37.698172 0 0 1-42.663484-42.663484 37.698172 37.698172 0 0 1 42.663484-42.663484z" fill="#E9F4FF" p-id="6890"></path><path d="M238.90787 298.682581h213.355614a37.698172 37.698172 0 0 1 42.663484 42.663484 37.698172 37.698172 0 0 1-42.663484 42.663484H238.90787a37.698172 37.698172 0 0 1-42.663484-42.663484 37.698172 37.698172 0 0 1 42.663484-42.663484z" fill="#E9F4FF" p-id="6891"></path></svg>