<svg t="1734100566218" class="icon" viewBox="0 0 1024 1024" version="1.1" xmlns="http://www.w3.org/2000/svg"
    p-id="18985" width="200" height="200">
    <path
        d="M512 0A512 512 0 0 0 0 512a512 512 0 0 0 512 512 512 512 0 0 0 512-512A512 512 0 0 0 512 0z m0 112a92.36 92.36 0 0 1 92.368 92.368A92.36 92.36 0 0 1 512 296.728a92.36 92.36 0 0 1-92.368-92.36A92.36 92.36 0 0 1 512 112zM154.264 262.548c1.088-0.048 2.28-0.028 3.596 0.052 3.508 0.22 7.908 0.872 13.592 1.808 13.448 2.212 95.5 15.412 182.344 29.336l157.9 25.312 165.092-25.54c90.8-14.044 171.388-27.12 179.08-29.048 9.064-2.276 17.332-0.16 23.516 6.024 11.44 11.44 11.752 15.22 2.28 27.46-6.768 8.748-249.648 103.032-265.412 103.032-5.588 0-6.272 20.94-3.056 94.236l4.132 94.24 45.908 146.784c25.244 80.728 45.896 149.04 45.896 151.812 0 2.768-4.096 9.136-9.108 14.148-24.808 24.804-34.172 12.128-112.952-152.92-39.676-83.12-73.456-151.088-75.072-151.032-1.616 0.048-36.864 68.548-78.328 152.224L358.28 902.616h-20.296c-16.14 0-20.652-2.464-22.024-12.06-0.948-6.64 19.116-77.104 44.588-156.588l46.312-144.508 3.84-98.592 3.84-98.588-129.2-40.5c-71.056-22.272-134.508-44.8-141.004-50.06-10.408-8.428-10.952-11.44-4.572-25.448 4.42-9.696 6.896-13.392 14.5-13.724z"
        fill="#1296db" p-id="18986"></path>
</svg>