<svg t="1735707706732" class="icon" viewBox="0 0 1024 1024" version="1.1" xmlns="http://www.w3.org/2000/svg" p-id="2989"
	width="200" height="200">
	<path
		d="M422.533917 286.252043c59.297351-100.939827 88.914043-151.40974 133.307097-151.40974 44.329087 0 73.945779 50.469913 133.24313 151.40974l15.352065 26.162478c16.887271 28.657188 25.330907 42.985782 38.380162 52.452888 13.177189 9.467107 29.552725 12.985288 62.303797 20.021651l29.808592 6.396694c115.140487 24.755205 172.71073 37.100824 186.463622 78.935201 13.688925 41.77041-25.586775 85.331894-104.074207 172.454862l-20.341486 22.516362c-22.324461 24.819172-33.454708 37.16479-38.508096 52.452888-4.989421 15.352065-3.326281 31.855535 0 64.862474l3.13438 30.064461c11.833883 116.291892 17.782809 174.437837-18.038676 200.216513-35.885452 25.842643-89.80958 2.30281-197.657836-44.776856l-27.889584-12.217685c-30.640163-13.433057-45.992228-20.085618-62.175863-20.085618-16.247602 0-31.599667 6.716528-62.23983 20.085618l-27.889584 12.153718c-107.848256 47.143633-161.772384 70.683465-197.657836 44.840823-35.821485-25.778676-29.87256-83.924621-18.038676-200.216513l3.070413-30.064461c3.390248-33.00694 5.117355-49.510409 0-64.862474-4.989421-15.288098-16.119668-27.633717-38.380163-52.452888l-20.341486-22.516362C115.748487 555.552849 76.536754 511.991364 90.289646 470.220955c13.688925-41.834377 71.259168-54.179996 186.463621-78.935201l29.744626-6.396694c32.751072-7.036363 49.126608-10.554545 62.23983-20.021651 13.177189-9.467107 21.556858-23.795701 38.380162-52.452888l15.352065-26.162478zM135.32237 4.157851c1.66314-5.501157 12.025784-5.565124 13.688924 0 7.739999 25.139006 22.068593 62.431731 43.753385 82.837183 21.620825 20.405453 60.960491 33.710576 87.634704 40.93884 5.757024 1.535206 5.820991 11.322148 0 12.921321-26.546279 7.356198-65.821978 20.917188-87.314869 41.514543-21.492891 20.46942-35.565617 57.890078-43.113716 83.157018-1.66314 5.501157-12.025784 5.501157-13.688924 0-7.676032-25.202973-22.068593-62.431731-43.689418-82.837184-21.684792-20.46942-61.024458-33.774543-87.634704-40.938839-5.820991-1.535206-5.884958-11.386115 0-12.985289 26.546279-7.292231 65.758011-20.917188 87.314869-41.450575 21.492891-20.533387 35.565617-57.890078 43.049749-83.157018z"
		fill="#f4ea2a" p-id="2990"></path>
	<path
		d="M913.863961 43.369583c22.836197 0 41.322641 17.526941 41.322641 39.211733v13.049255h13.752892c22.836197 0 41.322641 17.526941 41.322641 39.211732 0 21.620825-18.486445 39.211732-41.322641 39.211733h-13.752892v13.049255c0 21.620825-18.550412 39.211732-41.322641 39.211732-22.77223 0-41.322641-17.590908-41.322642-39.211732v-13.049255h-13.752891c-22.836197 0-41.322641-17.590908-41.322641-39.211733 0-21.684792 18.550412-39.211732 41.322641-39.211732h13.752891V82.517349c0-21.684792 18.550412-39.211732 41.322642-39.211733z"
		fill="#f4ea2a" p-id="2991"></path>
</svg>