<svg t="1734232845958" class="icon" viewBox="0 0 1024 1024" version="1.1" xmlns="http://www.w3.org/2000/svg" p-id="13962" width="200" height="200"><path d="M956.818 464.256l-70.272-172.608 70.848-196.16a42.112 42.112 0 0 0-8.704-42.88 35.328 35.328 0 0 0-40.192-8.512c-116.672 50.88-265.984 50.88-382.464 0-134.464-58.752-304.32-58.752-438.912 0.064A40 40 0 0 0 63.89 81.024V984c0 22.08 16.64 40 37.312 40 20.608 0 37.312-17.92 37.312-40V507.84c111.872-41.472 250.368-38.144 359.296 9.344 134.72 58.752 304.32 58.688 438.912 0a38.464 38.464 0 0 0 20.352-21.952 42.88 42.88 0 0 0-0.256-30.976z" fill="#FF5F5F" p-id="13963"></path></svg>