<svg t="1734100448369" class="icon" viewBox="0 0 1024 1024" version="1.1" xmlns="http://www.w3.org/2000/svg" p-id="15526" width="200" height="200"><path d="M512 0C229.307317 0 0 335.060293 0 617.959024 0 900.651707 229.307317 1024 512 1024s512-123.348293 512-406.040976C1024 335.060293 794.692683 0 512 0z" fill="#FFD5DA" p-id="15527"></path><path d="M512 35.04078c221.739707 0 411.285854 197.638244 487.02439 417.28C933.681951 219.073561 740.345756 0 512 0 283.660488 0 90.380488 219.073561 24.97561 452.32078c75.800976-219.641756 265.278439-417.28 487.02439-417.28z" fill="#FFDDE1" p-id="15528"></path><path d="M318.439024 301.543024c-27.598049 0-49.95122 29.539902-49.951219 65.998049 0 36.389463 22.353171 65.93561 49.951219 65.93561s49.95122-29.546146 49.95122-65.93561c0-36.458146-22.353171-65.998049-49.95122-65.998049zM711.804878 301.543024c-27.598049 0-49.95122 29.539902-49.951219 65.998049 0 36.389463 22.353171 65.93561 49.951219 65.93561s49.95122-29.546146 49.95122-65.93561c0-36.458146-22.353171-65.998049-49.95122-65.998049z" fill="#2F2D2E" p-id="15529"></path><path d="M0 620.06322C0 901.294829 229.307317 1024 512 1024s512-122.705171 512-403.93678c0-12.007024-0.611902-23.814244-1.429854-35.815025-18.001171 256.811707-239.740878 369.545366-510.570146 369.545366S19.431024 841.059902 1.436098 584.248195C0.605659 596.248976 0 608.056195 0 620.06322z" fill="#F89F00" p-id="15530"></path><path d="M0 620.06322C0 901.294829 229.307317 1024 512 1024s512-122.705171 512-403.93678c0-12.007024-0.611902-23.814244-1.429854-35.815025-18.001171 256.811707-239.740878 369.545366-510.570146 369.545366S19.431024 841.059902 1.436098 584.248195C0.605659 596.248976 0 608.056195 0 620.06322z" fill="#FFC7CD" p-id="15531"></path><path d="M355.902439 703.606634c0-17.345561 13.980098-31.413073 31.219512-31.413073h249.756098c17.239415 0 31.219512 14.067512 31.219512 31.413073 0 17.351805-13.980098 31.413073-31.219512 31.413073H387.121951c-17.239415 0-31.219512-14.061268-31.219512-31.413073z" fill="#2F2D2E" p-id="15532"></path></svg>