<svg t="1734102037689" class="icon" viewBox="0 0 1024 1024" version="1.1" xmlns="http://www.w3.org/2000/svg" p-id="31997" width="200" height="200"><path d="M938.666667 318.634667a240.469333 240.469333 0 0 0-7.338667-48.298667c0-1.536 0-2.901333-1.194667-4.437333a238.933333 238.933333 0 0 0-5.461333-17.92 9.898667 9.898667 0 0 1 0-2.389334c-3.584-10.069333-7.509333-20.48-12.458667-31.061333 0 0-92.330667-136.533333-214.186666-122.368a218.624 218.624 0 0 0-27.136 4.949333c-4.437333 1.024-8.704 2.048-12.970667 3.413334l-7.850667 1.877333-7.168 2.56c-3.754667 1.365333-7.338667 2.901333-10.752 4.437333l-10.24 4.949334-6.144 3.242666L614.4 119.466667a166.912 166.912 0 0 0-18.261333 11.776l-6.314667 4.437333a252.757333 252.757333 0 0 0-39.594667 37.888c-2.730667 3.072-5.12 6.144-7.68 9.216l-3.072 3.754667c-5.973333 7.850667-11.434667 15.701333-17.066666 23.722666l-2.218667 3.413334-3.754667 5.973333-4.608 7.509333q-5.290667 8.362667-10.24 17.066667l-0.853333 1.365333c-31.744-17.066667-91.306667-29.184-185.685333 22.528-122.709333 67.242667-87.552 184.661333-69.12 228.010667-12.8 8.533333-25.6 17.066667-38.058667 24.405333C99.498667 585.898667 11.946667 710.997333 176.981333 856.917333c0 0 114.517333 116.906667 214.186667 61.098667a179.029333 179.029333 0 0 0 19.797333-13.482667l5.802667-4.778666c4.096-3.242667 8.192-6.485333 12.117333-10.069334 2.56-2.218667 4.949333-4.778667 7.338667-7.168A397.653333 397.653333 0 0 0 464.384 853.333333l7.850667-9.728c3.072-3.754667 5.973333-7.68 9.045333-11.605333l5.802667-7.68 10.922666-14.677333 8.704-12.117334 27.818667-39.253333 1.706667-2.218667c30.378667 18.090667 90.965333 34.133333 190.122666-19.797333 105.813333-58.026667 94.208-153.6 77.312-206.336q8.704-5.973333 17.066667-12.288h0.853333l14.848-11.434667 3.413334-2.730666 13.141333-11.093334 2.218667-1.706666c5.12-4.608 9.898667-9.216 14.677333-13.824s9.216-9.557333 13.653333-14.506667a27.818667 27.818667 0 0 0 2.901334-3.413333 236.032 236.032 0 0 0 22.869333-31.232s0-1.365333 1.194667-2.218667c2.730667-4.608 5.290667-9.557333 7.68-14.336l2.389333-5.12c2.56-5.802667 4.949333-11.776 6.997333-17.066667A189.269333 189.269333 0 0 0 938.666667 324.266667zM606.890667 567.296C520.704 631.466667 482.474667 802.133333 398.165333 843.946667s-175.274667-58.026667-175.274666-58.026667c-131.413333-126.293333-27.136-196.778667 64.853333-247.296s198.997333-134.656 236.373333-193.194667S578.56 178.346667 679.936 170.666667 853.333333 279.381333 853.333333 279.381333c59.904 111.104-131.925333 201.898667-246.442666 287.914667z" fill="#fb0275" p-id="31998"></path></svg>