<svg t="1734097550188" class="icon" viewBox="0 0 1119 1024" version="1.1" xmlns="http://www.w3.org/2000/svg" p-id="6080"
    width="200" height="200">
    <path
        d="M1118.969153 343.858047a345.993999 345.993999 0 0 0-118.956679-265.273395 311.921408 311.921408 0 0 0-440.56456 26.595315A316.679675 316.679675 0 0 0 326.292822 0.073243C191.022084 1.347779 75.549136 87.081558 25.927206 208.587309A351.092143 351.092143 0 0 0 0.011644 343.858047a113.178784 113.178784 0 0 0 1.189567 16.993812V365.440188a294.247844 294.247844 0 0 0 23.791336 109.440145c0 1.274536 1.189567 2.71901 1.614412 3.993546 4.418391 10.706101 9.431565 21.497171 14.869585 32.288241l2.379133 4.843236h182.00372l44.098941-173.336876c17.503626-67.975245 48.262424-102.982497 92.361364-102.982496s76.047306 34.922282 91.93652 103.407342l59.47834 237.233606 28.209727-114.028474c16.993811-70.779224 48.262424-106.806104 92.361364-106.806104s76.047306 36.111849 92.361365 106.806104l12.150575 49.791867h106.976043a57.014237 57.014237 0 1 1 0 114.028475H723.77807a97.714415 97.714415 0 0 1-89.302479-63.04704l-27.699912 114.028474c-16.993811 70.014503-47.922548 105.701507-92.021489 105.701506s-76.047306-35.347128-92.446333-104.936785l-60.413-237.913359-29.229355 114.028474a97.28957 97.28957 0 0 1-91.93652 72.223699H61.529241a57.014237 57.014237 0 1 0 0 114.113443h155.91822a2620.870558 2620.870558 0 0 0 307.418047 267.822467 55.484794 55.484794 0 0 0 68.570029 0c10.366225-8.07206 192.539883-141.388511 338.68666-301.81009a1019.628682 1019.628682 0 0 0 130.852348-173.336876c4.333422-6.797525 8.496906-14.019894 11.895668-21.242264 1.189567-1.954288 2.039257-4.078515 3.058886-5.947834v-0.84969l1.189567-2.549072a406.152092 406.152092 0 0 0 19.033068-43.334219A277.50894 277.50894 0 0 0 1118.799215 365.440188v-5.947834c-0.254907-4.163484 0.169938-9.686472 0.169938-15.634307z"
        fill="#FF6686" p-id="6081"></path>
</svg>