<svg t="1734075210356" class="icon" viewBox="0 0 1072 1024" version="1.1" xmlns="http://www.w3.org/2000/svg" p-id="37971" width="200" height="200"><path d="M789.942857 799.695238c-248.685714 0-448.609524-199.92381-448.609524-448.609524C341.333333 209.67619 409.6 82.895238 512 0h-19.504762C219.428571 0 0 219.428571 0 492.495238s219.428571 492.495238 492.495238 492.495238c160.914286 0 302.32381-78.019048 390.095238-195.047619-29.257143 4.87619-58.514286 9.752381-92.647619 9.752381" fill="#f4ea2a" p-id="37972"></path><path d="M633.904762 502.247619L809.447619 292.571429V243.809524H585.142857v48.761905h160.914286l-175.542857 209.67619v48.761905H828.952381v-48.761905zM916.72381 243.809524l141.409523-165.790476V39.009524h-175.542857v39.009524h121.904762L867.961905 243.809524v39.009524H1072.761905V243.809524z" fill="#f4ea2a" p-id="37973"></path></svg>