<svg t="1734224655893" class="icon" viewBox="0 0 1024 1024" version="1.1" xmlns="http://www.w3.org/2000/svg"
    p-id="43798" width="200" height="200">
    <path d="M761.7 988.6H251c-20.8 0-37.7-16.9-37.7-37.7V410.2h586.1v540.6c0 20.9-16.8 37.8-37.7 37.8z" fill="#FF4D4D"
        p-id="43799"></path>
    <path
        d="M732.3 410.2v528.6c0 22.2-18 40.2-40.2 40.2H227.5c7 6 16.1 9.6 26 9.6h505.8c22.2 0 40.2-18 40.2-40.2V410.2h-67.2z"
        fill="#BF2E2E" p-id="43800"></path>
    <path d="M213.4 182h586.1v227.6H213.4z" fill="#FFE8AE" p-id="43801"></path>
    <path d="M229.8 29.3h100.8v245.8H229.8z" fill="#FFAE85" p-id="43802"></path>
    <path d="M225.2 275.1h110v128.1h-110z" fill="#FFFFFF" p-id="43803"></path>
    <path d="M342.7 86.7h110v225.6h-110z" fill="#FFAE85" p-id="43804"></path>
    <path d="M342.7 313.3h110v96.9h-110z" fill="#FFFFFF" p-id="43805"></path>
    <path d="M457.7 324.5h110v84.4h-110zM567.7 324.5h110v84.4h-110z" fill="#FFAE85" p-id="43806"></path>
    <path d="M677.6 324.5h110v84.4h-110z" fill="#FFAE85" p-id="43807"></path>
    <path
        d="M815.4 182c0-8.8-7.2-16-16-16H463.3V86.7c0-5.9-4.8-10.7-10.7-10.7h-110c-0.5 0-0.9 0-1.4 0.1V29.3c0-5.9-4.8-10.7-10.7-10.7H229.8c-5.9 0-10.7 4.8-10.7 10.7V166h-5.8c-8.8 0-16 7.2-16 16v766.6c0 30.9 25.2 56.1 56.1 56.1h505.8c30.9 0 56.1-25.2 56.1-56.1V410.2v-0.4V182zM353.3 97.3H442v204.3h-88.7V97.3z m0 226.6H442v69.6h-88.7v-69.6z m-117.4-38.2h88.7v106.8h-88.7V285.7zM240.4 40H320v224.5h-79.5V40z m543.1 908.4c0 13.3-10.8 24.2-24.2 24.2H253.5c-13.3 0-24.2-10.8-24.2-24.2V874h554.1v74.4z m0-95.7H229.3V426.2h554.1v426.5zM463.3 393.5v-58.4H557v58.4h-93.7z m115 0v-58.4H667v58.4h-88.7z m110 0v-58.4H777v58.4h-88.7z m95.2-79.6H463.3v-0.6-0.5-114.9h320.2v116z"
        fill="#3F2D20" p-id="43808"></path>
</svg>