<svg t="1734266509449" class="icon" viewBox="0 0 1024 1024" version="1.1" xmlns="http://www.w3.org/2000/svg" p-id="9942"
    width="200" height="200">
    <path
        d="M907.377778 376.490667a34.844444 34.844444 0 0 0-41.813334-26.197334h-0.085333l-163.086222 43.192889-144.696889-91.790222c-4.792889-2.403556-115.484444-21.802667-115.484444-21.802667l-299.292445-113.777777a34.929778 34.929778 0 0 0-46.592 16.184888 34.929778 34.929778 0 0 0 16.213333 46.606223c0.384 0.199111 0.682667 0.284444 1.080889 0.497777l282.083556 142.691556V790.755556c0 3.797333 0.497778 7.594667 1.408 11.292444l46.492444 186.083556a46.563556 46.563556 0 0 0 55.992889 34.602666 46.563556 46.563556 0 0 0 34.602667-55.992889l-0.298667-1.208889-45.098666-180.48 9.500444-92.586666 39.395556 89.784889c1.891556 5.688889 4.892444 10.993778 8.803555 15.601777l139.491556 162.688a46.549333 46.549333 0 1 0 70.684444-60.501333l-133.589333-155.790222-64.497778-186.083556V410.282667l123.889778 51.2c4.807111 2.403556 10.211556 3.697778 15.601778 3.697777 2.602667 0 5.304889-0.284444 7.808-0.896l175.288888-45.994666a34.844444 34.844444 0 0 0 26.197334-41.799111zM500.394667 69.816889a81.351111 81.351111 0 0 1 81.393777 81.393778 81.351111 81.351111 0 0 1-81.393777 81.393777 81.408 81.408 0 0 1 0-162.787555"
        fill="#FFBA57" p-id="9943"></path>
    <path d="M395.804444 790.755556V558.193778h116.295112L488.803556 790.755556H395.804444z" fill="#E64A19" p-id="9944">
    </path>
    <path
        d="M788.878222 232.604444c-8.903111 0-18.090667-1.706667-27.392-5.105777-29.397333-10.894222-56.405333-38.684444-72.391111-74.496-27.306667-61.496889-14.506667-125.880889 29.297778-146.588445 16.995556-8.106667 36.295111-8.490667 55.893333-1.194666 29.397333 10.894222 56.391111 38.684444 72.391111 74.496 27.392 61.496889 14.592 125.980444-29.198222 146.588444a67.356444 67.356444 0 0 1-28.586667 6.300444zM746.979556 46.506667c-3.2 0-6.101333 0.597333-8.689778 1.891555-17.493333 8.305778-24.007111 46.691556-6.599111 85.688889 10.794667 24.206222 28.387556 43.207111 45.994666 49.806222 7.594667 2.901333 14.293333 2.901333 19.797334 0.284445 17.493333-8.291556 24.490667-45.482667 6.599111-85.674667-10.808889-24.206222-28.401778-43.306667-45.994667-49.806222a34.090667 34.090667 0 0 0-11.093333-2.190222z"
        fill="#FF754C" p-id="9945"></path>
    <path d="M793.528889 224.099556l41.6-20.792889 95.914667 191.843555-41.585778 20.792889z" fill="#FF754C"
        p-id="9946"></path>
    <path d="M139.932444 23.324444v46.492445l92.984889 23.296V0L139.946667 23.324444z" fill="#B0BEC5" p-id="9947">
    </path>
    <path d="M116.622222 46.506667a23.296 23.296 0 1 0 46.606222 0 23.296 23.296 0 0 0-46.606222 0z" fill="#455A64"
        p-id="9948"></path>
    <path
        d="M557.795556 301.696c-4.792889-2.503111-115.584-21.902222-115.584-21.902222l-46.506667-17.692445v296.078223H558.506667V302.08l-0.696889-0.398222z"
        fill="#7E8CCF" p-id="9949"></path>
    <path d="M395.804444 558.179556l69.802667 69.788444 72.092445 154.296889 85.390222-38.001778-64.497778-186.083555z"
        fill="#FF754C" p-id="9950"></path>
</svg>