<svg t="1734076285885" class="icon" viewBox="0 0 1024 1024" version="1.1" xmlns="http://www.w3.org/2000/svg" p-id="78376" width="200" height="200"><path d="M539.282416 283.737123q-29.101243 0-55.019538-11.367673t-45.015986-30.465364-30.465364-45.015986-11.367673-55.019538 11.367673-55.019538 30.465364-45.015986 45.015986-30.465364 55.019538-11.367673 55.019538 11.367673 45.015986 30.465364 30.010657 45.015986 10.912966 55.019538-10.912966 55.019538-30.010657 45.015986-45.015986 30.465364-55.019538 11.367673zM741.172291 411.055062q24.554174 18.188277 40.468917 42.287744t15.914742 48.653641l0 90.031972q0 15.460036-17.73357 23.64476t-39.104796 8.184725-39.104796-7.730018-17.73357-25.008881l0-38.195382q0-13.641208-8.184725-20.461812t-16.369449-11.367673q-9.094139-4.547069-20.916519 4.092362t-11.82238 29.55595l0 240.085258q0 21.825933 14.550622 40.01421t35.46714 33.648313q18.188277 12.731794 30.920071 25.463588l30.010657 30.010657q5.456483 5.456483 4.092362 16.824156t-7.730018 24.099467-15.914742 25.463588-21.371226 20.007105-24.099467 7.275311-23.190053-11.82238q-16.369449-17.278863-26.373002-27.737123t-17.73357-18.642984-15.914742-15.460036-20.007105-20.007105q-23.64476-23.64476-40.468917-60.476021t-16.824156-73.207815l0-73.662522q-10.912966 13.641208-18.642984 21.825933t-17.73357 27.282416q-3.637655 7.275311-7.275311 19.097691t-6.820604 24.554174-5.001776 25.463588-1.818828 21.825933l0 75.48135q0 17.278863-17.73357 25.918295t-39.104796 8.184725-39.104796-10.003552-17.73357-28.646536l0-66.387211q0-35.46714 10.912966-62.749556t24.554174-58.202487q18.188277-41.833037 26.827709-67.296625t13.186501-35.46714q9.094139-20.916519 9.094139-37.285968l0-29.101243q-10.003552 6.365897-16.824156 11.82238t-18.642984 20.007105q-11.82238 13.641208-24.099467 17.73357t-38.650089 4.092362l-59.111901 0q-21.825933 0-32.284192-17.73357t-10.003552-38.650089 11.367673-38.650089 31.829485-17.73357l54.564831 0q10.912966 0 17.73357-2.728242t12.731794-8.184725 12.731794-12.731794 16.824156-16.369449q12.731794-10.912966 25.918295-32.284192t25.008881-43.197158q13.641208-25.463588 26.373002-54.564831 19.097691 0.909414 35.46714 1.818828 14.550622 0.909414 29.55595 1.364121t25.008881 0.454707 22.735346-0.454707 24.554174-1.364121q13.641208-0.909414 28.191829-1.818828 24.554174 15.460036 47.28952 28.191829 19.097691 11.82238 38.195382 22.735346t29.101243 18.188277z" fill="#1afa29" p-id="78377" data-spm-anchor-id="a313x.search_index.0.i14.431f3a81OHXqrb" class=""></path></svg>