<svg t="1734077392451" class="icon" viewBox="0 0 1024 1024" version="1.1" xmlns="http://www.w3.org/2000/svg" p-id="133959" width="200" height="200"><path d="M775.38816 81.92H253.72672A104.8064 104.8064 0 0 0 148.48 186.04544v651.90912A104.8064 104.8064 0 0 0 253.72672 942.08h521.66144A104.8064 104.8064 0 0 0 880.64 837.95456V186.04544A104.81152 104.81152 0 0 0 775.38816 81.92z m40.832 756.03456a40.66304 40.66304 0 0 1-40.832 40.3968H253.72672a40.65792 40.65792 0 0 1-40.82688-40.3968V186.04544a40.65792 40.65792 0 0 1 40.82688-40.3968h521.66144a40.66304 40.66304 0 0 1 40.832 40.3968v651.90912z m-300.69248-293.0432a107.07456 107.07456 0 0 0-32.85504 5.12L398.3872 431.13984l-52.736 36.59776 84.7872 119.59808a104.448 104.448 0 0 0-20.9152 62.464 106.01472 106.01472 0 1 0 106.00448-104.88832z m0 146.0224a41.41568 41.41568 0 0 1-41.58976-41.14432 40.6528 40.6528 0 0 1 17.17248-33.31584 41.32352 41.32352 0 1 1 24.41728 74.46016z" fill="#5288F5" p-id="133960"></path><path d="M328.28416 383.25248l-40.79104-49.29024a375.83872 375.83872 0 0 1 454.144-14.5664L704.11264 371.2a311.10656 311.10656 0 0 0-375.82848 12.05248z" fill="#F79C42" p-id="133961"></path></svg>